<?xml version="1.0" encoding="UTF-8"?>
<svg id="Tags_-_Colour_White" data-name="Tags - Colour &amp;amp; White" xmlns="http://www.w3.org/2000/svg" xmlns:xlink="http://www.w3.org/1999/xlink" viewBox="0 0 233 400">
  <defs>
    <style>
      .cls-1 {
        fill: #fff;
        stroke-width: 0px;
      }
    </style>
    <symbol id="Microcloud_-_White" data-name="Microcloud - White" viewBox="0 0 233 400">
      <g>
        <path class="cls-1" d="M174.28,284.79l-3.68-1.17.37-3.85c.11-1.1.16-2.22.16-3.33,0-19.44-15.82-35.26-35.25-35.26-12.33,0-23.55,6.26-30.01,16.74l-2.35,3.81-3.96-2.08c-3.37-1.77-7.15-2.7-10.93-2.7-12.97,0-23.52,10.55-23.52,23.53,0,.36,0,.73.03,1.09l.19,4.16-4.09.77c-13.77,2.6-23.77,14.73-23.77,28.83,0,16.19,13.17,29.36,29.36,29.36,7.76,0,26.83.02,46.41.04h1.64c20.62.02,41.48.05,50.02.05,16.95,0,30.73-13.79,30.73-30.73,0-13.44-8.57-25.2-21.33-29.26ZM169.08,321.93c-2.74,0-5.14-1.48-6.45-3.67l-31.49,7.47c-.04,5.17-4.24,9.35-9.42,9.35s-9.06-3.88-9.39-8.78l-32.14-5.62c-2.02,5.43-7.24,9.31-13.38,9.31-.06,0-.12,0-.18,0-.06,0-.12,0-.18,0-7.89,0-14.29-6.4-14.29-14.29s6.4-14.29,14.29-14.29c.06,0,.12,0,.18,0,.06,0,.12,0,.18,0,7.89,0,14.29,6.4,14.29,14.29,0,.19-.02.38-.03.57l32.02,5.6c.36-.81.82-1.56,1.38-2.23l-23.41-31.68c-.77.26-1.59.42-2.45.42-4.15,0-7.51-3.36-7.51-7.51s3.36-7.51,7.51-7.51,7.51,3.36,7.51,7.51c0,1.66-.54,3.18-1.45,4.42l23.41,31.68c1.12-.47,2.34-.73,3.63-.73.13,0,.25.01.38.02l10.62-36.69c-3.54-1.87-5.96-5.59-5.96-9.87,0-6.16,5-11.16,11.16-11.16s11.16,5,11.16,11.16-5,11.16-11.16,11.16c-.3,0-.59-.02-.88-.04l-10.62,36.69c1.57.91,2.85,2.24,3.68,3.86l31.49-7.47c.28-3.9,3.52-6.98,7.49-6.98s7.51,3.36,7.51,7.51-3.36,7.51-7.51,7.51Z"/>
        <path class="cls-1" d="M0,0v400h233V0H0ZM164.88,354.38c-8.55,0-29.41-.02-50.03-.04h-1.63c-19.58-.02-38.64-.04-46.41-.04-21.48,0-38.95-17.47-38.95-38.95,0-17.37,11.45-32.48,27.73-37.32,1.27-17.11,15.6-30.65,33.03-30.65,3.9,0,7.79.7,11.45,2.05,8.44-11.23,21.54-17.83,35.8-17.83,24.73,0,44.85,20.12,44.85,44.85,0,.17,0,.34,0,.51,14.79,6.26,24.49,20.73,24.49,37.1,0,22.23-18.09,40.32-40.32,40.32Z"/>
      </g>
    </symbol>
  </defs>
  <use width="233" height="400" xlink:href="#Microcloud_-_White"/>
</svg>