<?xml version="1.0" encoding="UTF-8"?>
<svg id="Tags_-_Colour_White" data-name="Tags - Colour &amp;amp; White" xmlns="http://www.w3.org/2000/svg" xmlns:xlink="http://www.w3.org/1999/xlink" viewBox="0 0 233 400">
  <defs>
    <style>
      .cls-1 {
        fill: #e95420;
      }

      .cls-1, .cls-2, .cls-3 {
        stroke-width: 0px;
      }

      .cls-2 {
        fill: none;
      }

      .cls-3 {
        fill: #fff;
      }
    </style>
    <symbol id="Microcloud_-_Updated" data-name="Microcloud - Updated" viewBox="0 0 233 400">
      <g>
        <polyline class="cls-1" points="233 400 0 400 0 0 233 0"/>
        <g>
          <rect class="cls-2" x="27.91" y="188.84" width="177.23" height="177.23"/>
          <g>
            <path class="cls-3" d="M169.08,306.9c-3.97,0-7.21,3.08-7.49,6.98l-31.49,7.47c-.83-1.61-2.11-2.95-3.68-3.86l10.62-36.69c.29.02.58.04.88.04,6.16,0,11.16-5,11.16-11.16s-5-11.16-11.16-11.16-11.16,5-11.16,11.16c0,4.29,2.42,8,5.96,9.87l-10.62,36.69c-.13,0-.25-.02-.38-.02-1.29,0-2.51.26-3.63.73l-23.41-31.68c.91-1.24,1.45-2.77,1.45-4.42,0-4.15-3.36-7.51-7.51-7.51s-7.51,3.36-7.51,7.51,3.36,7.51,7.51,7.51c.86,0,1.68-.15,2.45-.42l23.41,31.68c-.56.67-1.02,1.42-1.38,2.23l-32.02-5.6c0-.19.03-.38.03-.57,0-7.89-6.4-14.29-14.29-14.29-.06,0-.12,0-.18,0-.06,0-.12,0-.18,0-7.89,0-14.29,6.4-14.29,14.29s6.4,14.29,14.29,14.29c.06,0,.12,0,.18,0,.06,0,.12,0,.18,0,6.14,0,11.36-3.88,13.38-9.31l32.14,5.62c.33,4.9,4.4,8.78,9.39,8.78s9.38-4.18,9.42-9.35l31.49-7.47c1.31,2.2,3.7,3.67,6.45,3.67,4.15,0,7.51-3.36,7.51-7.51s-3.36-7.51-7.51-7.51Z"/>
            <path class="cls-3" d="M180.71,276.96c0-.17,0-.34,0-.51,0-24.73-20.12-44.85-44.85-44.85-14.27,0-27.36,6.59-35.8,17.83-3.66-1.35-7.55-2.05-11.45-2.05-17.43,0-31.76,13.53-33.03,30.65-16.28,4.84-27.73,19.95-27.73,37.32,0,21.48,17.47,38.95,38.95,38.95,7.76,0,26.82.02,46.41.04h1.63c20.62.02,41.48.05,50.03.05,22.24,0,40.32-18.09,40.32-40.32,0-16.37-9.7-30.84-24.49-37.1ZM164.88,344.79c-8.55,0-29.4-.02-50.02-.04h-1.64c-19.58-.02-38.65-.04-46.41-.04-16.19,0-29.36-13.17-29.36-29.36,0-14.1,10-26.23,23.77-28.83l4.09-.77-.19-4.16c-.02-.36-.03-.73-.03-1.09,0-12.97,10.55-23.53,23.52-23.53,3.79,0,7.57.93,10.93,2.7l3.96,2.08,2.35-3.81c6.46-10.48,17.68-16.74,30.01-16.74,19.44,0,35.25,15.82,35.25,35.26,0,1.1-.05,2.22-.16,3.33l-.37,3.85,3.68,1.17c12.76,4.06,21.33,15.82,21.33,29.26,0,16.95-13.79,30.73-30.73,30.73Z"/>
          </g>
        </g>
      </g>
    </symbol>
  </defs>
  <use width="233" height="400" xlink:href="#Microcloud_-_Updated"/>
</svg>